<svg xmlns="http://www.w3.org/2000/svg" viewBox="0 0 100 100" width="100" height="100">
  <!-- 桔梗紋 - 提供画像に基づく正確な形状 -->
  <g transform="translate(50,50)">
    <!-- 上の花びら -->
    <path d="M0,-35 C-8,-32 -14,-25 -16,-18 C-18,-12 -16,-8 -12,-6 C-8,-4 -4,-3 0,-2 C4,-3 8,-4 12,-6 C16,-8 18,-12 16,-18 C14,-25 8,-32 0,-35 Z" fill="#3b4a6b"/>
    <!-- 右上の花びら -->
    <path d="M0,-35 C-8,-32 -14,-25 -16,-18 C-18,-12 -16,-8 -12,-6 C-8,-4 -4,-3 0,-2 C4,-3 8,-4 12,-6 C16,-8 18,-12 16,-18 C14,-25 8,-32 0,-35 Z" fill="#3b4a6b" transform="rotate(72)"/>
    <!-- 右下の花びら -->
    <path d="M0,-35 C-8,-32 -14,-25 -16,-18 C-18,-12 -16,-8 -12,-6 C-8,-4 -4,-3 0,-2 C4,-3 8,-4 12,-6 C16,-8 18,-12 16,-18 C14,-25 8,-32 0,-35 Z" fill="#3b4a6b" transform="rotate(144)"/>
    <!-- 左下の花びら -->
    <path d="M0,-35 C-8,-32 -14,-25 -16,-18 C-18,-12 -16,-8 -12,-6 C-8,-4 -4,-3 0,-2 C4,-3 8,-4 12,-6 C16,-8 18,-12 16,-18 C14,-25 8,-32 0,-35 Z" fill="#3b4a6b" transform="rotate(216)"/>
    <!-- 左上の花びら -->
    <path d="M0,-35 C-8,-32 -14,-25 -16,-18 C-18,-12 -16,-8 -12,-6 C-8,-4 -4,-3 0,-2 C4,-3 8,-4 12,-6 C16,-8 18,-12 16,-18 C14,-25 8,-32 0,-35 Z" fill="#3b4a6b" transform="rotate(288)"/>
  </g>
</svg>
